<?xml version="1.0" standalone="no"?>
<!DOCTYPE svg PUBLIC "-//W3C//DTD SVG 20010904//EN"
 "http://www.w3.org/TR/2001/REC-SVG-20010904/DTD/svg10.dtd">
<svg version="1.0" xmlns="http://www.w3.org/2000/svg"
 width="200.000000pt" height="200.000000pt" viewBox="0 0 200.000000 200.000000"
 preserveAspectRatio="xMidYMid meet">

<g transform="translate(0.000000,200.000000) scale(0.100000,-0.100000)"
fill="#000000" stroke="none">
<path d="M860 1634 c-180 -38 -357 -177 -439 -344 -94 -193 -94 -387 0 -580
59 -119 170 -230 289 -289 193 -94 387 -94 580 0 119 59 230 170 289 289 94
193 94 387 0 580 -59 119 -170 230 -289 289 -139 68 -284 87 -430 55z m314
-113 c165 -58 291 -185 348 -349 32 -95 32 -249 0 -344 -56 -164 -180 -288
-348 -350 -85 -31 -263 -31 -348 0 -168 62 -292 186 -348 350 -32 95 -32 249
0 344 65 188 219 324 417 368 64 14 212 4 279 -19z"/>
</g>
</svg>
